<mxfile host="Electron" agent="Mozilla/5.0 (X11; Linux x86_64) AppleWebKit/537.36 (KHTML, like Gecko) draw.io/26.0.16 Chrome/132.0.6834.196 Electron/34.2.0 Safari/537.36" version="26.0.16">
  <diagram name="Page-1" id="3D-ucWUT8Je3nkYX09Tv">
    <mxGraphModel dx="1434" dy="892" grid="0" gridSize="10" guides="1" tooltips="1" connect="1" arrows="1" fold="1" page="1" pageScale="1" pageWidth="827" pageHeight="1169" math="0" shadow="0">
      <root>
        <mxCell id="0" />
        <mxCell id="1" parent="0" />
        <mxCell id="rrnpN5_68PFNWWVhybHh-61" value="nextCol" style="edgeStyle=orthogonalEdgeStyle;rounded=0;orthogonalLoop=1;jettySize=auto;html=1;fontSize=12;fontFamily=Liberation Sans;" edge="1" parent="1" source="rrnpN5_68PFNWWVhybHh-59" target="rrnpN5_68PFNWWVhybHh-60">
          <mxGeometry relative="1" as="geometry">
            <mxPoint as="offset" />
          </mxGeometry>
        </mxCell>
        <mxCell id="rrnpN5_68PFNWWVhybHh-69" value="" style="rounded=0;orthogonalLoop=1;jettySize=auto;html=1;fontSize=12;fontFamily=Liberation Sans;" edge="1" parent="1" source="rrnpN5_68PFNWWVhybHh-59" target="rrnpN5_68PFNWWVhybHh-68">
          <mxGeometry relative="1" as="geometry" />
        </mxCell>
        <mxCell id="rrnpN5_68PFNWWVhybHh-75" value="nextRow" style="edgeLabel;html=1;align=center;verticalAlign=middle;resizable=0;points=[];fontSize=12;fontFamily=Liberation Sans;" vertex="1" connectable="0" parent="rrnpN5_68PFNWWVhybHh-69">
          <mxGeometry x="-0.0266" relative="1" as="geometry">
            <mxPoint as="offset" />
          </mxGeometry>
        </mxCell>
        <mxCell id="rrnpN5_68PFNWWVhybHh-59" value="F&lt;sub&gt;01&lt;/sub&gt;" style="ellipse;whiteSpace=wrap;html=1;aspect=fixed;fontSize=12;fontFamily=Liberation Sans;" vertex="1" parent="1">
          <mxGeometry x="200" y="240" width="40" height="40" as="geometry" />
        </mxCell>
        <mxCell id="rrnpN5_68PFNWWVhybHh-63" value="nextCol" style="edgeStyle=orthogonalEdgeStyle;rounded=0;orthogonalLoop=1;jettySize=auto;html=1;fontSize=12;fontFamily=Liberation Sans;" edge="1" parent="1" source="rrnpN5_68PFNWWVhybHh-60" target="rrnpN5_68PFNWWVhybHh-62">
          <mxGeometry relative="1" as="geometry" />
        </mxCell>
        <mxCell id="rrnpN5_68PFNWWVhybHh-60" value="F&lt;sub&gt;02&lt;/sub&gt;" style="ellipse;whiteSpace=wrap;html=1;aspect=fixed;fontSize=12;fontFamily=Liberation Sans;" vertex="1" parent="1">
          <mxGeometry x="320" y="240" width="40" height="40" as="geometry" />
        </mxCell>
        <mxCell id="rrnpN5_68PFNWWVhybHh-65" value="nextC&lt;span style=&quot;background-color: light-dark(#ffffff, var(--ge-dark-color, #121212)); color: light-dark(rgb(0, 0, 0), rgb(255, 255, 255));&quot;&gt;ol&lt;/span&gt;" style="edgeStyle=orthogonalEdgeStyle;rounded=0;orthogonalLoop=1;jettySize=auto;html=1;fontSize=12;fontFamily=Liberation Sans;" edge="1" parent="1" source="rrnpN5_68PFNWWVhybHh-62" target="rrnpN5_68PFNWWVhybHh-64">
          <mxGeometry relative="1" as="geometry">
            <mxPoint as="offset" />
          </mxGeometry>
        </mxCell>
        <mxCell id="rrnpN5_68PFNWWVhybHh-62" value="F&lt;sub&gt;03&lt;/sub&gt;" style="ellipse;whiteSpace=wrap;html=1;aspect=fixed;fontSize=12;fontFamily=Liberation Sans;" vertex="1" parent="1">
          <mxGeometry x="440" y="240" width="40" height="40" as="geometry" />
        </mxCell>
        <mxCell id="rrnpN5_68PFNWWVhybHh-64" value="..." style="ellipse;whiteSpace=wrap;html=1;aspect=fixed;fontSize=12;fontFamily=Liberation Sans;" vertex="1" parent="1">
          <mxGeometry x="560" y="240" width="40" height="40" as="geometry" />
        </mxCell>
        <mxCell id="rrnpN5_68PFNWWVhybHh-68" value="F&lt;span&gt;&lt;sub&gt;12&lt;/sub&gt;&lt;/span&gt;" style="ellipse;whiteSpace=wrap;html=1;aspect=fixed;fontSize=12;fontFamily=Liberation Sans;" vertex="1" parent="1">
          <mxGeometry x="320" y="320" width="40" height="40" as="geometry" />
        </mxCell>
        <mxCell id="rrnpN5_68PFNWWVhybHh-71" value="F&lt;span&gt;&lt;sub&gt;13&lt;/sub&gt;&lt;/span&gt;" style="ellipse;whiteSpace=wrap;html=1;aspect=fixed;fontSize=12;fontFamily=Liberation Sans;" vertex="1" parent="1">
          <mxGeometry x="440" y="320" width="40" height="40" as="geometry" />
        </mxCell>
        <mxCell id="rrnpN5_68PFNWWVhybHh-73" value="..." style="ellipse;whiteSpace=wrap;html=1;aspect=fixed;fontSize=12;fontFamily=Liberation Sans;" vertex="1" parent="1">
          <mxGeometry x="560" y="320" width="40" height="40" as="geometry" />
        </mxCell>
        <mxCell id="rrnpN5_68PFNWWVhybHh-76" value="" style="rounded=0;orthogonalLoop=1;jettySize=auto;html=1;fontSize=12;fontFamily=Liberation Sans;" edge="1" parent="1" target="rrnpN5_68PFNWWVhybHh-79" source="rrnpN5_68PFNWWVhybHh-68">
          <mxGeometry relative="1" as="geometry">
            <mxPoint x="370" y="450" as="sourcePoint" />
          </mxGeometry>
        </mxCell>
        <mxCell id="rrnpN5_68PFNWWVhybHh-77" value="nextRow" style="edgeLabel;html=1;align=center;verticalAlign=middle;resizable=0;points=[];fontSize=12;fontFamily=Liberation Sans;" vertex="1" connectable="0" parent="rrnpN5_68PFNWWVhybHh-76">
          <mxGeometry x="-0.0266" relative="1" as="geometry">
            <mxPoint as="offset" />
          </mxGeometry>
        </mxCell>
        <mxCell id="rrnpN5_68PFNWWVhybHh-79" value="F&lt;span&gt;&lt;sub&gt;23&lt;/sub&gt;&lt;/span&gt;" style="ellipse;whiteSpace=wrap;html=1;aspect=fixed;fontSize=12;fontFamily=Liberation Sans;" vertex="1" parent="1">
          <mxGeometry x="440" y="400" width="40" height="40" as="geometry" />
        </mxCell>
        <mxCell id="rrnpN5_68PFNWWVhybHh-81" value="..." style="ellipse;whiteSpace=wrap;html=1;aspect=fixed;fontSize=12;fontFamily=Liberation Sans;" vertex="1" parent="1">
          <mxGeometry x="560" y="400" width="40" height="40" as="geometry" />
        </mxCell>
        <mxCell id="rrnpN5_68PFNWWVhybHh-83" value="" style="rounded=0;orthogonalLoop=1;jettySize=auto;html=1;fontSize=12;fontFamily=Liberation Sans;" edge="1" parent="1" target="rrnpN5_68PFNWWVhybHh-85" source="rrnpN5_68PFNWWVhybHh-79">
          <mxGeometry relative="1" as="geometry">
            <mxPoint x="426.91410717657504" y="519.996862336418" as="sourcePoint" />
          </mxGeometry>
        </mxCell>
        <mxCell id="rrnpN5_68PFNWWVhybHh-84" value="nextRow" style="edgeLabel;html=1;align=center;verticalAlign=middle;resizable=0;points=[];fontSize=12;fontFamily=Liberation Sans;" vertex="1" connectable="0" parent="rrnpN5_68PFNWWVhybHh-83">
          <mxGeometry x="-0.0266" relative="1" as="geometry">
            <mxPoint as="offset" />
          </mxGeometry>
        </mxCell>
        <mxCell id="rrnpN5_68PFNWWVhybHh-85" value="..." style="ellipse;whiteSpace=wrap;html=1;aspect=fixed;fontSize=12;fontFamily=Liberation Sans;" vertex="1" parent="1">
          <mxGeometry x="560" y="480" width="41" height="41" as="geometry" />
        </mxCell>
        <mxCell id="rrnpN5_68PFNWWVhybHh-86" value="row 0" style="rounded=1;whiteSpace=wrap;html=1;fontStyle=1;fontSize=12;fontFamily=Liberation Sans;" vertex="1" parent="1">
          <mxGeometry x="120" y="240" width="60" height="40" as="geometry" />
        </mxCell>
        <mxCell id="rrnpN5_68PFNWWVhybHh-87" value="row 1" style="rounded=1;whiteSpace=wrap;html=1;fontStyle=1;fontSize=12;fontFamily=Liberation Sans;" vertex="1" parent="1">
          <mxGeometry x="120" y="320" width="60" height="40" as="geometry" />
        </mxCell>
        <mxCell id="rrnpN5_68PFNWWVhybHh-88" value="row 2" style="rounded=1;whiteSpace=wrap;html=1;fontStyle=1;fontSize=12;fontFamily=Liberation Sans;" vertex="1" parent="1">
          <mxGeometry x="120" y="400" width="60" height="40" as="geometry" />
        </mxCell>
        <mxCell id="rrnpN5_68PFNWWVhybHh-90" value="col&amp;nbsp;&lt;span style=&quot;background-color: transparent; color: light-dark(rgb(0, 0, 0), rgb(255, 255, 255));&quot;&gt;1&lt;/span&gt;" style="rounded=1;whiteSpace=wrap;html=1;fontStyle=1;fontSize=12;fontFamily=Liberation Sans;" vertex="1" parent="1">
          <mxGeometry x="190" y="180" width="60" height="40" as="geometry" />
        </mxCell>
        <mxCell id="rrnpN5_68PFNWWVhybHh-91" value="col 2" style="rounded=1;whiteSpace=wrap;html=1;fontStyle=1;fontSize=12;fontFamily=Liberation Sans;" vertex="1" parent="1">
          <mxGeometry x="310" y="180" width="60" height="40" as="geometry" />
        </mxCell>
        <mxCell id="rrnpN5_68PFNWWVhybHh-92" value="col 3" style="rounded=1;whiteSpace=wrap;html=1;fontStyle=1;fontSize=12;fontFamily=Liberation Sans;" vertex="1" parent="1">
          <mxGeometry x="430" y="180" width="60" height="40" as="geometry" />
        </mxCell>
        <mxCell id="rrnpN5_68PFNWWVhybHh-93" value="F&lt;span&gt;&lt;sub&gt;AB&lt;/sub&gt;&amp;nbsp;- Kraft von Planet A zu Planet B&lt;/span&gt;" style="text;html=1;align=center;verticalAlign=middle;whiteSpace=wrap;rounded=0;fontSize=12;fontFamily=Liberation Sans;" vertex="1" parent="1">
          <mxGeometry x="150" y="471" width="240" height="50" as="geometry" />
        </mxCell>
        <mxCell id="rrnpN5_68PFNWWVhybHh-95" value="nextC&lt;span style=&quot;background-color: light-dark(#ffffff, var(--ge-dark-color, #121212)); color: light-dark(rgb(0, 0, 0), rgb(255, 255, 255));&quot;&gt;ol&lt;/span&gt;" style="edgeStyle=orthogonalEdgeStyle;rounded=0;orthogonalLoop=1;jettySize=auto;html=1;fontSize=12;fontFamily=Liberation Sans;" edge="1" parent="1" source="rrnpN5_68PFNWWVhybHh-71" target="rrnpN5_68PFNWWVhybHh-73">
          <mxGeometry relative="1" as="geometry">
            <mxPoint x="500" y="280" as="sourcePoint" />
            <mxPoint x="580" y="280" as="targetPoint" />
            <mxPoint as="offset" />
          </mxGeometry>
        </mxCell>
        <mxCell id="rrnpN5_68PFNWWVhybHh-96" value="nextC&lt;span style=&quot;background-color: light-dark(#ffffff, var(--ge-dark-color, #121212)); color: light-dark(rgb(0, 0, 0), rgb(255, 255, 255));&quot;&gt;ol&lt;/span&gt;" style="edgeStyle=orthogonalEdgeStyle;rounded=0;orthogonalLoop=1;jettySize=auto;html=1;fontSize=12;fontFamily=Liberation Sans;" edge="1" parent="1" source="rrnpN5_68PFNWWVhybHh-79" target="rrnpN5_68PFNWWVhybHh-81">
          <mxGeometry relative="1" as="geometry">
            <mxPoint x="517" y="294" as="sourcePoint" />
            <mxPoint x="590" y="290" as="targetPoint" />
            <mxPoint as="offset" />
          </mxGeometry>
        </mxCell>
        <mxCell id="rrnpN5_68PFNWWVhybHh-97" value="nextC&lt;span style=&quot;background-color: light-dark(#ffffff, var(--ge-dark-color, #121212)); color: light-dark(rgb(0, 0, 0), rgb(255, 255, 255));&quot;&gt;ol&lt;/span&gt;" style="edgeStyle=orthogonalEdgeStyle;rounded=0;orthogonalLoop=1;jettySize=auto;html=1;fontSize=12;fontFamily=Liberation Sans;" edge="1" parent="1" source="rrnpN5_68PFNWWVhybHh-68" target="rrnpN5_68PFNWWVhybHh-71">
          <mxGeometry relative="1" as="geometry">
            <mxPoint x="490" y="350" as="sourcePoint" />
            <mxPoint x="454" y="338" as="targetPoint" />
            <mxPoint as="offset" />
          </mxGeometry>
        </mxCell>
      </root>
    </mxGraphModel>
  </diagram>
</mxfile>
